<?xml version="1.0" standalone="no"?>
<!DOCTYPE svg PUBLIC "-//W3C//DTD SVG 20010904//EN"
 "http://www.w3.org/TR/2001/REC-SVG-20010904/DTD/svg10.dtd">
<svg version="1.0" xmlns="http://www.w3.org/2000/svg"
 width="190.000000pt" height="125.000000pt" viewBox="0 0 190.000000 125.000000"
 preserveAspectRatio="xMidYMid meet">

<g transform="translate(0.000000,125.000000) scale(0.100000,-0.100000)"
fill="#ffffff" stroke="none">
<path d="M1085 1213 c4 -10 10 -27 12 -38 l5 -20 -15 20 c-11 14 -16 16 -17 6
0 -11 -5 -10 -22 5 -13 10 -5 -1 17 -25 22 -24 90 -83 150 -131 61 -49 153
-133 205 -187 122 -127 189 -243 339 -588 12 -28 14 -28 22 -10 4 11 8 52 8
90 -1 70 -1 70 -14 35 l-14 -35 4 45 c3 32 2 38 -3 20 -6 -19 -10 -5 -15 56
-9 100 -19 133 -66 206 -39 62 -51 71 -51 36 0 -13 -4 -28 -8 -35 -4 -6 -7 21
-7 61 0 64 -4 78 -35 129 -19 31 -56 78 -82 104 -45 45 -48 46 -49 23 -1 -22
-2 -21 -10 7 -8 27 -81 103 -99 103 -3 0 -4 -19 -2 -42 l3 -43 -25 58 c-33 78
-39 84 -130 129 -89 43 -112 47 -101 21z"/>
<path d="M983 1174 c-3 -8 5 -26 18 -41 23 -25 23 -25 2 -14 -29 15 -33 14
-33 -7 0 -11 14 -27 35 -37 39 -22 40 -30 1 -16 -20 8 -26 7 -26 -3 0 -17 51
-50 106 -70 22 -8 32 -15 23 -15 -9 -1 -36 6 -59 14 -24 8 -45 13 -47 11 -10
-10 33 -89 63 -116 19 -16 31 -30 27 -30 -4 0 3 -9 17 -20 15 -12 18 -18 8
-14 -34 12 -18 -15 31 -50 70 -52 150 -86 237 -101 81 -14 110 -26 47 -20 -21
3 -69 6 -108 9 -38 2 -78 7 -87 11 -13 5 -15 2 -11 -13 15 -58 116 -132 228
-168 l40 -13 -32 0 c-17 -1 -44 4 -60 9 l-28 10 30 -26 c55 -47 146 -103 196
-119 28 -10 49 -18 47 -20 -8 -8 -105 17 -137 36 l-36 21 25 -26 c24 -24 184
-116 202 -116 14 0 1 35 -64 170 -105 220 -163 297 -420 552 -162 161 -231
223 -235 212z"/>
<path d="M1154 1051 c165 -153 270 -266 339 -362 71 -100 205 -354 234 -445
10 -32 20 -51 26 -45 18 18 -136 346 -232 491 -68 104 -154 195 -295 313 -166
138 -177 145 -72 48z"/>
<path d="M318 878 c-42 -95 -72 -174 -68 -176 8 -3 353 127 460 172 l35 15
-165 80 c-91 44 -170 81 -176 81 -6 0 -45 -78 -86 -172z m242 55 c27 -34 22
-64 -13 -81 -37 -18 -63 -8 -76 30 -14 40 -14 44 5 62 24 24 60 19 84 -11z
m-124 -27 c3 -8 -2 -28 -10 -45 -21 -40 -21 -41 17 -34 42 8 27 -7 -28 -28
-51 -19 -56 -12 -25 39 22 36 26 62 9 62 -7 0 -18 -8 -25 -17 -7 -10 -16 -15
-20 -11 -12 13 27 48 53 48 13 0 26 -6 29 -14z"/>
<path d="M490 925 c0 -25 23 -65 37 -65 20 0 27 28 15 56 -13 26 -52 34 -52 9z"/>
<path d="M624 975 l149 -74 49 40 c44 38 59 59 41 59 -5 0 -89 11 -188 25 -99
14 -184 24 -190 24 -5 0 57 -34 139 -74z m66 15 c-9 -17 -30 -28 -30 -16 0 16
15 36 26 36 12 0 12 -4 4 -20z m86 -26 c-3 -9 -6 -20 -6 -25 0 -5 -6 -9 -14
-9 -18 0 -28 27 -13 34 7 4 2 4 -10 2 -13 -2 -26 0 -29 5 -3 5 14 9 36 9 34 0
41 -3 36 -16z"/>
<path d="M199 838 l-133 -153 58 -3 c32 -2 64 -1 71 2 14 5 153 306 141 306
-2 0 -63 -69 -137 -152z m4 -70 c2 -18 1 -40 -4 -48 -6 -11 -8 -6 -9 18 0 17
-4 32 -10 32 -5 0 -14 -15 -19 -32 -5 -18 -10 -25 -10 -15 -1 22 26 77 38 77
5 0 11 -15 14 -32z"/>
<path d="M846 931 l-47 -48 112 -136 c62 -75 114 -135 116 -133 5 4 -116 349
-125 358 -4 4 -29 -14 -56 -41z m4 -41 c-8 -5 -17 -7 -19 -4 -3 3 1 9 9 14 8
5 17 7 19 4 3 -3 -1 -9 -9 -14z m65 -41 c26 -32 28 -50 8 -56 -7 -3 -9 4 -6
17 4 16 2 19 -11 14 -19 -7 -56 21 -56 43 0 24 38 14 65 -18z"/>
<path d="M870 862 c0 -12 19 -26 26 -19 2 2 -2 10 -11 17 -9 8 -15 8 -15 2z"/>
<path d="M500 763 c-135 -53 -247 -97 -250 -100 -3 -3 7 -15 21 -26 211 -173
370 -299 374 -295 5 5 85 368 103 466 5 28 7 52 3 51 -3 -1 -116 -44 -251 -96z
m90 -68 c7 -8 10 -27 7 -43 -5 -22 -1 -30 16 -37 48 -22 28 -88 -32 -106 -58
-17 -85 1 -78 51 4 29 0 41 -14 54 -25 21 -24 51 1 76 24 24 82 27 100 5z"/>
<path d="M517 673 c-12 -11 -7 -41 7 -46 21 -8 48 16 40 36 -6 17 -35 23 -47
10z"/>
<path d="M542 588 c-16 -16 -15 -33 2 -47 22 -18 58 4 54 32 -3 25 -37 34 -56
15z"/>
<path d="M780 837 c0 -1 -23 -112 -50 -246 -28 -134 -48 -246 -46 -249 3 -2
85 39 183 92 l178 97 45 -23 c72 -37 187 -127 308 -240 62 -59 138 -123 170
-144 72 -48 205 -114 229 -114 10 1 -25 23 -78 49 -131 66 -165 90 -325 237
-139 127 -201 174 -306 233 -45 26 -82 62 -174 172 -98 117 -134 153 -134 136z
m127 -195 c10 8 13 4 13 -17 0 -23 -3 -26 -22 -22 -13 3 -40 9 -61 12 -39 8
-52 18 -42 34 3 6 24 4 52 -4 34 -10 50 -11 60 -3z m-27 -80 c18 -14 22 -25
16 -45 -8 -35 -22 -35 -21 0 0 37 -21 40 -28 3 -8 -38 -48 -60 -73 -40 -17 15
-13 62 7 87 16 19 73 16 99 -5z"/>
<path d="M786 533 c-4 -9 -2 -21 3 -26 15 -15 41 0 41 23 0 25 -35 28 -44 3z"/>
<path d="M60 654 c0 -5 28 -91 62 -192 l63 -183 7 182 c4 100 7 184 5 185 -8
8 -137 15 -137 8z m74 -76 c-6 -40 -4 -49 6 -43 8 5 11 3 8 -5 -2 -8 -9 -15
-15 -17 -16 -6 -23 35 -12 65 7 18 7 28 0 30 -17 6 -13 22 4 22 13 0 15 -9 9
-52z m38 -25 c2 -24 0 -43 -4 -43 -5 0 -7 26 -7 58 1 61 6 55 11 -15z"/>
<path d="M220 486 c0 -78 -3 -171 -6 -205 -6 -57 -5 -61 13 -61 18 0 323 70
378 87 18 5 18 7 -7 27 -137 114 -366 296 -371 296 -4 0 -7 -65 -7 -144z m147
-30 c24 -21 26 -26 16 -49 -16 -35 -57 -60 -82 -52 -40 12 -37 68 5 109 21 21
28 20 61 -8z m50 -97 c-29 -24 -35 -34 -27 -44 16 -19 -2 -26 -25 -9 -18 14
-17 16 25 59 30 30 47 42 54 35 7 -7 -2 -20 -27 -41z"/>
<path d="M306 419 c-13 -22 -15 -34 -7 -42 14 -14 61 28 61 55 0 29 -34 21
-54 -13z"/>
<path d="M837 391 c-156 -85 -158 -86 -154 -116 3 -16 14 -50 24 -74 l19 -44
119 134 c65 74 130 146 144 162 13 15 21 27 15 26 -5 -1 -80 -40 -167 -88z
m-17 -81 c0 -21 -37 -70 -52 -70 -7 0 -2 10 10 23 31 33 29 57 -2 28 l-25 -23
6 23 c6 21 5 23 -10 10 -9 -7 -17 -22 -17 -32 0 -11 -4 -19 -10 -19 -15 0 -12
11 9 47 16 25 26 31 55 31 28 0 36 -4 36 -18z"/>
<path d="M460 245 c-96 -24 -168 -45 -160 -48 22 -8 384 -55 389 -51 7 6 -31
123 -43 133 -7 5 -81 -8 -186 -34z m100 6 c0 -4 -5 -22 -11 -40 -12 -34 -34
-44 -24 -10 4 12 9 29 10 38 2 9 4 17 4 19 2 6 21 1 21 -7z m90 -8 c0 -5 -71
-73 -76 -73 -12 0 0 25 22 45 26 24 26 25 5 25 -11 0 -21 4 -21 8 0 4 16 6 35
4 19 -2 35 -6 35 -9z"/>
<path d="M1740 170 c0 -5 9 -10 20 -10 11 0 20 5 20 10 0 6 -9 10 -20 10 -11
0 -20 -4 -20 -10z"/>
<path d="M1763 143 c-20 -8 -15 -57 7 -76 11 -9 22 -17 24 -17 10 0 13 57 3
77 -11 24 -13 25 -34 16z"/>
</g>
</svg>
